<?xml version="1.0" encoding="UTF-8"?>
<svg version="1.1" xmlns="http://www.w3.org/2000/svg" width="2000" height="1500">
<path d="M0 0 C660 0 1320 0 2000 0 C2000 495 2000 990 2000 1500 C1340 1500 680 1500 0 1500 C0 1005 0 510 0 0 Z " fill="#000000" transform="translate(0,0)"/>
<path d="M0 0 C330 0 660 0 1000 0 C1000 330 1000 660 1000 1000 C670 1000 340 1000 0 1000 C0 670 0 340 0 0 Z " fill="#000000" transform="translate(500,250)"/>
<path d="M0 0 C330 0 660 0 1000 0 C1000 330 1000 660 1000 1000 C670 1000 340 1000 0 1000 C0 670 0 340 0 0 Z M43 43 C43 344.62 43 646.24 43 957 C344.62 957 646.24 957 957 957 C957 655.38 957 353.76 957 43 C655.38 43 353.76 43 43 43 Z " fill="#FCFCFC" transform="translate(500,250)"/>
<path d="M0 0 C267.02271825 0 267.02271825 0 329.62109375 58.7734375 C331.71780132 60.73587315 333.86327314 62.59242299 336.0625 64.4375 C372.19255557 96.10615195 397.10533568 148.34038968 401 196 C401.41025906 203.51540594 401.43847105 211.03778222 401.4375 218.5625 C401.43889984 219.59924866 401.44029968 220.63599731 401.44174194 221.7041626 C401.42261207 238.96928871 400.14976879 255.18143777 396 272 C395.80245117 272.82935059 395.60490234 273.65870117 395.40136719 274.51318359 C394.1949686 279.44399923 392.72002701 284.22542272 391 289 C390.72849121 289.75974121 390.45698242 290.51948242 390.17724609 291.30224609 C381.73803478 314.4762924 369.94422066 336.1336179 354 355 C353.54334961 355.54543457 353.08669922 356.09086914 352.61621094 356.65283203 C343.48560953 367.54709684 334.13602228 377.10686671 323 386 C322.20851563 386.65871094 321.41703125 387.31742188 320.6015625 387.99609375 C296.23320184 408.11415894 267.27076869 421.45287814 237 430 C236.33661621 430.19287598 235.67323242 430.38575195 234.98974609 430.58447266 C163.10946906 451.26334844 53.00751766 438 0 438 C0 293.46 0 148.92 0 0 Z " fill="#FDFDFD" transform="translate(814,515)"/>
<path d="M0 0 C116.8 0 116.8 0 149 28 C149.79535156 28.67546875 150.59070312 29.3509375 151.41015625 30.046875 C173.30760151 49.13521986 186.84923546 72.72249914 193 101 C193.18473877 101.74290283 193.36947754 102.48580566 193.55981445 103.2512207 C195.3169511 110.81604132 195.35492396 118.32785689 195.3125 126.0625 C195.31067719 126.74975159 195.30885437 127.43700317 195.30697632 128.14508057 C195.25973223 138.72252486 194.65188902 148.71323696 192 159 C191.83371094 159.68094727 191.66742187 160.36189453 191.49609375 161.06347656 C186.2311462 182.34751452 176.17989171 200.17470473 161 216 C159.86304688 217.23169922 159.86304688 217.23169922 158.703125 218.48828125 C147.86759793 229.87266671 135.24782953 237.60365625 121 244 C120.03827881 244.4333667 120.03827881 244.4333667 119.05712891 244.87548828 C81.79316294 261.38122761 39.68954631 254 0 254 C0 170.18 0 86.36 0 0 Z " fill="#000000" transform="translate(916,607)"/>
</svg>
