<?xml version="1.0" encoding="UTF-8"?>
<svg xmlns="http://www.w3.org/2000/svg" xmlns:xlink="http://www.w3.org/1999/xlink" width="500px" height="375px" viewBox="0 0 500 375" version="1.1">
<g id="surface1">
<path style=" stroke:none;fill-rule:nonzero;fill:rgb(0%,0%,0%);fill-opacity:1;" d="M 0 0 C 165 0 330 0 500 0 C 500 123.75 500 247.5 500 375 C 335 375 170 375 0 375 C 0 251.25 0 127.5 0 0 Z M 0 0 "/>
<path style=" stroke:none;fill-rule:nonzero;fill:rgb(41.568628%,44.313726%,49.803922%);fill-opacity:1;" d="M 81.636719 141.875 C 81.910156 141.871094 82.1875 141.871094 82.472656 141.871094 C 83.390625 141.867188 84.308594 141.871094 85.230469 141.871094 C 85.898438 141.871094 86.566406 141.871094 87.230469 141.867188 C 88.679688 141.863281 90.128906 141.863281 91.578125 141.867188 C 93.734375 141.871094 95.890625 141.871094 98.042969 141.867188 C 101.894531 141.859375 105.742188 141.859375 109.59375 141.863281 C 112.960938 141.867188 116.328125 141.867188 119.699219 141.867188 C 119.921875 141.867188 120.144531 141.867188 120.375 141.867188 C 121.285156 141.867188 122.191406 141.867188 123.097656 141.863281 C 131.609375 141.863281 140.121094 141.863281 148.632812 141.871094 C 156.191406 141.875 163.753906 141.875 171.3125 141.871094 C 179.808594 141.863281 188.304688 141.863281 196.800781 141.867188 C 197.707031 141.867188 198.613281 141.867188 199.519531 141.867188 C 199.742188 141.867188 199.964844 141.867188 200.195312 141.867188 C 203.558594 141.867188 206.925781 141.867188 210.292969 141.863281 C 214.121094 141.859375 217.949219 141.863281 221.777344 141.867188 C 223.917969 141.871094 226.0625 141.871094 228.203125 141.867188 C 229.632812 141.863281 231.066406 141.867188 232.496094 141.871094 C 233.3125 141.871094 234.128906 141.871094 234.941406 141.871094 C 239.347656 141.855469 243.433594 141.894531 246.859375 145.066406 C 248.183594 146.453125 249.75 148.234375 249.75 150.25 C 249.914062 150.25 250.078125 150.25 250.25 150.25 C 250.277344 150.03125 250.300781 149.808594 250.328125 149.582031 C 250.832031 147.128906 252.804688 145.195312 254.75 143.75 C 257.089844 142.300781 259.304688 141.925781 262.011719 141.9375 C 262.289062 141.933594 262.5625 141.933594 262.84375 141.933594 C 263.765625 141.929688 264.6875 141.933594 265.609375 141.933594 C 266.277344 141.933594 266.941406 141.929688 267.609375 141.929688 C 269.058594 141.925781 270.511719 141.925781 271.960938 141.925781 C 274.117188 141.925781 276.273438 141.925781 278.429688 141.921875 C 282.507812 141.917969 286.582031 141.917969 290.660156 141.917969 C 293.808594 141.917969 296.957031 141.914062 300.105469 141.914062 C 301.011719 141.914062 301.914062 141.914062 302.820312 141.914062 C 303.046875 141.914062 303.273438 141.910156 303.503906 141.910156 C 309.839844 141.910156 316.179688 141.90625 322.515625 141.90625 C 322.753906 141.90625 322.992188 141.90625 323.238281 141.90625 C 324.449219 141.90625 325.660156 141.90625 326.871094 141.90625 C 327.113281 141.90625 327.351562 141.90625 327.601562 141.90625 C 328.085938 141.90625 328.574219 141.90625 329.058594 141.90625 C 336.625 141.90625 344.191406 141.902344 351.757812 141.898438 C 360.257812 141.890625 368.757812 141.886719 377.257812 141.886719 C 378.164062 141.886719 379.074219 141.886719 379.980469 141.886719 C 380.203125 141.886719 380.425781 141.886719 380.65625 141.886719 C 384.246094 141.886719 387.835938 141.882812 391.429688 141.878906 C 395.039062 141.875 398.648438 141.875 402.257812 141.875 C 404.402344 141.878906 406.546875 141.878906 408.691406 141.871094 C 410.121094 141.871094 411.554688 141.871094 412.988281 141.875 C 413.804688 141.875 414.621094 141.875 415.4375 141.871094 C 419.847656 141.855469 423.929688 141.890625 427.359375 145.066406 C 430.003906 147.84375 430.828125 150.675781 430.816406 154.433594 C 430.820312 154.871094 430.820312 154.871094 430.820312 155.316406 C 430.824219 156.121094 430.824219 156.925781 430.824219 157.730469 C 430.824219 158.597656 430.824219 159.46875 430.828125 160.335938 C 430.832031 162.039062 430.832031 163.742188 430.832031 165.441406 C 430.832031 166.828125 430.835938 168.210938 430.835938 169.59375 C 430.839844 173.523438 430.84375 177.449219 430.84375 181.378906 C 430.84375 181.695312 430.84375 181.695312 430.84375 182.019531 C 430.84375 182.339844 430.84375 182.339844 430.84375 182.664062 C 430.84375 186.09375 430.847656 189.523438 430.855469 192.957031 C 430.863281 196.484375 430.863281 200.011719 430.863281 203.539062 C 430.863281 205.519531 430.867188 207.496094 430.871094 209.476562 C 430.875 211.160156 430.875 212.847656 430.875 214.53125 C 430.871094 215.390625 430.871094 216.25 430.875 217.105469 C 430.878906 218.039062 430.878906 218.972656 430.875 219.910156 C 430.875 220.175781 430.878906 220.441406 430.882812 220.71875 C 430.847656 224.238281 429.648438 227.457031 427.125 229.9375 C 425.117188 231.65625 422.476562 232.78125 419.8125 232.78125 C 419.578125 232.78125 419.347656 232.785156 419.105469 232.785156 C 418.851562 232.785156 418.59375 232.785156 418.332031 232.785156 C 417.921875 232.785156 417.921875 232.785156 417.503906 232.785156 C 416.582031 232.785156 415.660156 232.785156 414.742188 232.785156 C 414.074219 232.789062 413.410156 232.789062 412.746094 232.789062 C 411.105469 232.792969 409.464844 232.792969 407.824219 232.792969 C 405.863281 232.792969 403.898438 232.796875 401.933594 232.796875 C 397.1875 232.804688 392.441406 232.804688 387.691406 232.808594 C 385.445312 232.808594 383.203125 232.8125 380.957031 232.8125 C 373.269531 232.816406 365.582031 232.820312 357.894531 232.824219 C 357.414062 232.824219 356.929688 232.824219 356.445312 232.824219 C 356.089844 232.824219 356.089844 232.824219 355.722656 232.824219 C 354.507812 232.824219 353.296875 232.824219 352.085938 232.824219 C 351.722656 232.824219 351.722656 232.824219 351.355469 232.824219 C 343.554688 232.824219 335.75 232.832031 327.949219 232.839844 C 319.699219 232.847656 311.453125 232.851562 303.203125 232.855469 C 302.296875 232.855469 301.394531 232.855469 300.488281 232.855469 C 300.152344 232.855469 300.152344 232.855469 299.8125 232.855469 C 296.222656 232.855469 292.636719 232.859375 289.046875 232.863281 C 285.441406 232.871094 281.835938 232.871094 278.226562 232.867188 C 276.085938 232.867188 273.945312 232.867188 271.800781 232.875 C 270.371094 232.878906 268.9375 232.878906 267.503906 232.875 C 266.691406 232.871094 265.875 232.871094 265.058594 232.875 C 260.425781 232.894531 256.480469 232.714844 252.828125 229.5 C 251.761719 228.375 250.25 226.085938 250.25 224.5 C 250.085938 224.5 249.921875 224.5 249.75 224.5 C 249.714844 224.636719 249.675781 224.773438 249.640625 224.914062 C 248.882812 227.460938 247.449219 229.484375 245.25 231 C 243.347656 231.972656 241.476562 232.78125 239.3125 232.78125 C 239.078125 232.78125 238.847656 232.785156 238.605469 232.785156 C 238.351562 232.785156 238.09375 232.785156 237.832031 232.785156 C 237.421875 232.785156 237.421875 232.785156 237.003906 232.785156 C 236.082031 232.785156 235.160156 232.785156 234.242188 232.785156 C 233.574219 232.789062 232.910156 232.789062 232.246094 232.789062 C 230.605469 232.792969 228.964844 232.792969 227.324219 232.792969 C 225.363281 232.792969 223.398438 232.796875 221.433594 232.796875 C 216.6875 232.804688 211.941406 232.804688 207.191406 232.808594 C 204.945312 232.808594 202.703125 232.8125 200.457031 232.8125 C 192.769531 232.816406 185.082031 232.820312 177.394531 232.824219 C 176.914062 232.824219 176.429688 232.824219 175.945312 232.824219 C 175.589844 232.824219 175.589844 232.824219 175.222656 232.824219 C 174.007812 232.824219 172.796875 232.824219 171.585938 232.824219 C 171.222656 232.824219 171.222656 232.824219 170.855469 232.824219 C 163.054688 232.824219 155.25 232.832031 147.449219 232.839844 C 139.199219 232.847656 130.953125 232.851562 122.703125 232.855469 C 121.796875 232.855469 120.894531 232.855469 119.988281 232.855469 C 119.652344 232.855469 119.652344 232.855469 119.3125 232.855469 C 115.722656 232.855469 112.136719 232.859375 108.546875 232.863281 C 104.941406 232.871094 101.335938 232.871094 97.726562 232.867188 C 95.585938 232.867188 93.445312 232.867188 91.300781 232.875 C 89.871094 232.878906 88.4375 232.878906 87.003906 232.875 C 86.191406 232.871094 85.375 232.871094 84.558594 232.875 C 80.136719 232.894531 76.097656 232.84375 72.640625 229.695312 C 69.972656 226.921875 69.171875 223.8125 69.183594 220.0625 C 69.183594 219.769531 69.183594 219.476562 69.183594 219.175781 C 69.179688 218.371094 69.179688 217.566406 69.179688 216.757812 C 69.179688 215.890625 69.179688 215.019531 69.175781 214.148438 C 69.175781 212.441406 69.175781 210.738281 69.175781 209.035156 C 69.175781 207.648438 69.175781 206.261719 69.171875 204.875 C 69.171875 204.679688 69.171875 204.480469 69.171875 204.277344 C 69.171875 203.878906 69.171875 203.476562 69.171875 203.074219 C 69.167969 199.316406 69.167969 195.554688 69.171875 191.796875 C 69.171875 188.359375 69.167969 184.921875 69.164062 181.484375 C 69.160156 177.953125 69.15625 174.421875 69.160156 170.890625 C 69.160156 168.90625 69.160156 166.925781 69.15625 164.945312 C 69.152344 163.257812 69.152344 161.570312 69.15625 159.882812 C 69.15625 159.023438 69.15625 158.164062 69.152344 157.304688 C 69.152344 156.371094 69.152344 155.4375 69.15625 154.5 C 69.15625 154.230469 69.152344 153.960938 69.152344 153.683594 C 69.175781 150.277344 70.375 147.507812 72.695312 145.019531 C 75.15625 142.722656 78.339844 141.84375 81.636719 141.875 Z M 81.636719 141.875 "/>
<path style=" stroke:none;fill-rule:nonzero;fill:rgb(99.215686%,99.215686%,99.215686%);fill-opacity:1;" d="M 81.636719 141.875 C 81.910156 141.871094 82.1875 141.871094 82.472656 141.871094 C 83.390625 141.867188 84.308594 141.871094 85.230469 141.871094 C 85.898438 141.871094 86.566406 141.871094 87.230469 141.867188 C 88.679688 141.863281 90.128906 141.863281 91.578125 141.867188 C 93.734375 141.871094 95.890625 141.871094 98.042969 141.867188 C 101.894531 141.859375 105.742188 141.859375 109.59375 141.863281 C 112.960938 141.867188 116.328125 141.867188 119.699219 141.867188 C 119.921875 141.867188 120.144531 141.867188 120.375 141.867188 C 121.285156 141.867188 122.191406 141.867188 123.097656 141.863281 C 131.609375 141.863281 140.121094 141.863281 148.632812 141.871094 C 156.191406 141.875 163.753906 141.875 171.3125 141.871094 C 179.808594 141.863281 188.304688 141.863281 196.800781 141.867188 C 197.707031 141.867188 198.613281 141.867188 199.519531 141.867188 C 199.742188 141.867188 199.964844 141.867188 200.195312 141.867188 C 203.558594 141.867188 206.925781 141.867188 210.292969 141.863281 C 214.121094 141.859375 217.949219 141.863281 221.777344 141.867188 C 223.917969 141.871094 226.0625 141.871094 228.203125 141.867188 C 229.632812 141.863281 231.066406 141.867188 232.496094 141.871094 C 233.3125 141.871094 234.128906 141.871094 234.941406 141.871094 C 239.347656 141.855469 243.433594 141.894531 246.859375 145.066406 C 249.574219 147.917969 250.0625 150.472656 250.003906 154.277344 C 250 154.640625 250 154.640625 250 155.011719 C 249.988281 155.800781 249.980469 156.59375 249.96875 157.382812 C 249.964844 157.933594 249.957031 158.488281 249.953125 159.039062 C 249.9375 160.484375 249.917969 161.929688 249.902344 163.378906 C 249.882812 164.855469 249.867188 166.332031 249.851562 167.8125 C 249.820312 170.707031 249.785156 173.605469 249.75 176.5 C 249.460938 176.53125 249.171875 176.5625 248.875 176.59375 C 248.488281 176.636719 248.105469 176.679688 247.71875 176.722656 C 247.53125 176.742188 247.339844 176.761719 247.144531 176.78125 C 244.445312 177.085938 241.988281 178.011719 240.046875 179.953125 C 238.828125 181.726562 238.523438 183.355469 238.75 185.5 C 239.058594 186.90625 239.617188 187.832031 240.75 188.75 C 242.375 189.542969 244.234375 189.492188 245.972656 189.078125 C 247.375 188.574219 248.179688 187.992188 249 186.75 C 249.226562 186.074219 249.28125 185.691406 249.273438 184.996094 C 249.273438 184.808594 249.273438 184.617188 249.273438 184.421875 C 249.269531 184.226562 249.269531 184.03125 249.265625 183.828125 C 249.265625 183.628906 249.261719 183.429688 249.261719 183.222656 C 249.257812 182.734375 249.253906 182.242188 249.25 181.75 C 248.824219 181.757812 248.824219 181.757812 248.390625 181.765625 C 247.5 181.75 247.5 181.75 247.25 181.5 C 247.144531 180.492188 247.125 179.507812 247.25 178.5 C 248.015625 177.632812 248.679688 177.273438 249.828125 177.1875 C 251.007812 177.265625 251.582031 177.597656 252.421875 178.40625 C 253.34375 180.074219 253.320312 182.015625 253.300781 183.875 C 253.296875 184.238281 253.296875 184.238281 253.296875 184.605469 C 253.292969 185.367188 253.289062 186.128906 253.28125 186.890625 C 253.277344 187.410156 253.277344 187.929688 253.273438 188.449219 C 253.269531 189.714844 253.261719 190.984375 253.25 192.25 C 253 192.265625 252.746094 192.28125 252.488281 192.300781 C 251.53125 192.363281 250.578125 192.429688 249.625 192.5 C 249.214844 192.53125 248.804688 192.558594 248.398438 192.585938 C 245.113281 192.796875 240.976562 193.078125 238.5 195.5 C 237.0625 197.613281 236.792969 199.460938 237 202 C 237.445312 203.839844 238.367188 205.515625 239.980469 206.5625 C 240.484375 206.828125 240.964844 207.050781 241.5 207.25 C 241.730469 207.335938 241.960938 207.421875 242.199219 207.511719 C 243.632812 207.917969 245.132812 207.800781 246.609375 207.78125 C 247.0625 207.777344 247.0625 207.777344 247.523438 207.773438 C 248.265625 207.769531 249.007812 207.761719 249.75 207.75 C 249.804688 209.820312 249.855469 211.890625 249.898438 213.964844 C 249.917969 214.925781 249.941406 215.886719 249.96875 216.851562 C 249.996094 217.78125 250.015625 218.710938 250.03125 219.640625 C 250.039062 219.992188 250.046875 220.347656 250.058594 220.699219 C 250.167969 224.210938 249.378906 226.890625 247.027344 229.53125 C 245.011719 231.503906 242.152344 232.78125 239.3125 232.78125 C 239.078125 232.78125 238.847656 232.785156 238.605469 232.785156 C 238.351562 232.785156 238.09375 232.785156 237.832031 232.785156 C 237.421875 232.785156 237.421875 232.785156 237.003906 232.785156 C 236.082031 232.785156 235.160156 232.785156 234.242188 232.785156 C 233.574219 232.789062 232.910156 232.789062 232.246094 232.789062 C 230.605469 232.792969 228.964844 232.792969 227.324219 232.792969 C 225.363281 232.792969 223.398438 232.796875 221.433594 232.796875 C 216.6875 232.804688 211.941406 232.804688 207.191406 232.808594 C 204.945312 232.808594 202.703125 232.8125 200.457031 232.8125 C 192.769531 232.816406 185.082031 232.820312 177.394531 232.824219 C 176.914062 232.824219 176.429688 232.824219 175.945312 232.824219 C 175.589844 232.824219 175.589844 232.824219 175.222656 232.824219 C 174.007812 232.824219 172.796875 232.824219 171.585938 232.824219 C 171.222656 232.824219 171.222656 232.824219 170.855469 232.824219 C 163.054688 232.824219 155.25 232.832031 147.449219 232.839844 C 139.199219 232.847656 130.953125 232.851562 122.703125 232.855469 C 121.796875 232.855469 120.894531 232.855469 119.988281 232.855469 C 119.652344 232.855469 119.652344 232.855469 119.3125 232.855469 C 115.722656 232.855469 112.136719 232.859375 108.546875 232.863281 C 104.941406 232.871094 101.335938 232.871094 97.726562 232.867188 C 95.585938 232.867188 93.445312 232.867188 91.300781 232.875 C 89.871094 232.878906 88.4375 232.878906 87.003906 232.875 C 86.191406 232.871094 85.375 232.871094 84.558594 232.875 C 80.136719 232.894531 76.097656 232.84375 72.640625 229.695312 C 69.972656 226.921875 69.171875 223.8125 69.183594 220.0625 C 69.183594 219.769531 69.183594 219.476562 69.183594 219.175781 C 69.179688 218.371094 69.179688 217.566406 69.179688 216.757812 C 69.179688 215.890625 69.179688 215.019531 69.175781 214.148438 C 69.175781 212.441406 69.175781 210.738281 69.175781 209.035156 C 69.175781 207.648438 69.175781 206.261719 69.171875 204.875 C 69.171875 204.679688 69.171875 204.480469 69.171875 204.277344 C 69.171875 203.878906 69.171875 203.476562 69.171875 203.074219 C 69.167969 199.316406 69.167969 195.554688 69.171875 191.796875 C 69.171875 188.359375 69.167969 184.921875 69.164062 181.484375 C 69.160156 177.953125 69.15625 174.421875 69.160156 170.890625 C 69.160156 168.90625 69.160156 166.925781 69.15625 164.945312 C 69.152344 163.257812 69.152344 161.570312 69.15625 159.882812 C 69.15625 159.023438 69.15625 158.164062 69.152344 157.304688 C 69.152344 156.371094 69.152344 155.4375 69.15625 154.5 C 69.15625 154.230469 69.152344 153.960938 69.152344 153.683594 C 69.175781 150.277344 70.375 147.507812 72.695312 145.019531 C 75.15625 142.722656 78.339844 141.84375 81.636719 141.875 Z M 81.636719 141.875 "/>
<path style=" stroke:none;fill-rule:nonzero;fill:rgb(0.392157%,0.392157%,0.392157%);fill-opacity:1;" d="M 85 162.75 C 88.09375 162.738281 91.183594 162.730469 94.277344 162.722656 C 95.714844 162.722656 97.152344 162.71875 98.585938 162.710938 C 99.976562 162.707031 101.367188 162.703125 102.753906 162.703125 C 103.28125 162.703125 103.808594 162.699219 104.335938 162.695312 C 108.101562 162.679688 111.851562 162.730469 115.5 163.78125 C 115.777344 163.859375 115.777344 163.859375 116.058594 163.941406 C 118.945312 164.8125 121.785156 166.179688 124 168.25 C 124.167969 168.40625 124.335938 168.558594 124.507812 168.71875 C 129.15625 173.445312 129.359375 180.132812 129.328125 186.34375 C 129.296875 188.84375 129.035156 191.125 128.25 193.5 C 128.152344 193.796875 128.058594 194.09375 127.957031 194.402344 C 126.257812 199.183594 123.175781 202.410156 118.640625 204.628906 C 111.558594 207.9375 103.699219 207.640625 96.070312 207.570312 C 94.816406 207.558594 93.566406 207.554688 92.3125 207.546875 C 89.875 207.539062 87.4375 207.519531 85 207.5 C 85 207.085938 85 206.675781 85 206.25 C 86.402344 206.25 87.804688 206.25 89.25 206.25 C 89.25 192.308594 89.25 178.363281 89.25 164 C 87.847656 164 86.445312 164 85 164 C 85 163.585938 85 163.175781 85 162.75 Z M 85 162.75 "/>
<path style=" stroke:none;fill-rule:nonzero;fill:rgb(0.784314%,0.784314%,0.784314%);fill-opacity:1;" d="M 228 177.5 C 228.273438 177.664062 228.546875 177.828125 228.828125 178 C 229.050781 178.164062 229.273438 178.328125 229.5 178.5 C 229.703125 178.648438 229.902344 178.796875 230.109375 178.953125 C 232.785156 181.25 233.875 185.140625 234.195312 188.53125 C 234.613281 194.15625 234.488281 199.796875 230.964844 204.457031 C 229.6875 205.84375 228.265625 206.632812 226.5 207.25 C 226.320312 207.316406 226.140625 207.378906 225.957031 207.445312 C 224.328125 207.992188 222.835938 208.121094 221.125 208.109375 C 220.882812 208.113281 220.640625 208.121094 220.390625 208.125 C 217.65625 208.121094 216.195312 207.445312 214.25 205.5 C 214.167969 210.78125 214.085938 216.058594 214 221.5 C 216.722656 221.5 219.445312 221.5 222.25 221.5 C 222.25 221.914062 222.25 222.324219 222.25 222.75 C 214.414062 222.75 206.574219 222.75 198.5 222.75 C 198.5 222.335938 198.5 221.925781 198.5 221.5 C 199.65625 221.5 200.808594 221.5 202 221.5 C 202 207.226562 202 192.953125 202 178.25 C 200.925781 178.25 199.855469 178.25 198.75 178.25 C 198.75 177.835938 198.75 177.425781 198.75 177 C 203.699219 177 208.648438 177 213.75 177 C 213.875 179.226562 213.875 179.226562 214 181.5 C 214.207031 181.164062 214.414062 180.828125 214.625 180.484375 C 215.816406 178.699219 217.386719 177.1875 219.507812 176.613281 C 222.246094 176.195312 225.574219 176.019531 228 177.5 Z M 228 177.5 "/>
<path style=" stroke:none;fill-rule:nonzero;fill:rgb(0%,0%,0%);fill-opacity:1;" d="M 338.5 159.5 C 343.53125 159.5 348.566406 159.5 353.75 159.5 C 353.832031 166.925781 353.914062 174.351562 354 182 C 354.496094 181.175781 354.988281 180.351562 355.5 179.5 C 356.84375 177.957031 358.480469 176.621094 360.605469 176.453125 C 367.945312 176.246094 367.945312 176.246094 370.625 178.671875 C 372.621094 180.910156 373.332031 183.5625 373.308594 186.496094 C 373.308594 186.710938 373.308594 186.925781 373.308594 187.148438 C 373.304688 187.851562 373.304688 188.554688 373.296875 189.257812 C 373.296875 189.75 373.296875 190.238281 373.296875 190.730469 C 373.292969 192.015625 373.289062 193.300781 373.285156 194.585938 C 373.277344 195.898438 373.277344 197.214844 373.273438 198.527344 C 373.269531 201.101562 373.261719 203.675781 373.25 206.25 C 374.40625 206.25 375.558594 206.25 376.75 206.25 C 376.75 206.664062 376.75 207.074219 376.75 207.5 C 370.808594 207.5 364.871094 207.5 358.75 207.5 C 358.75 207.085938 358.75 206.675781 358.75 206.25 C 359.574219 206.25 360.398438 206.25 361.25 206.25 C 361.234375 203.011719 361.214844 199.773438 361.191406 196.535156 C 361.179688 195.03125 361.171875 193.527344 361.164062 192.027344 C 361.15625 190.574219 361.148438 189.125 361.132812 187.671875 C 361.128906 187.121094 361.128906 186.566406 361.125 186.011719 C 361.125 185.238281 361.117188 184.460938 361.109375 183.6875 C 361.109375 183.457031 361.109375 183.226562 361.109375 182.992188 C 361.089844 181.675781 360.980469 180.730469 360 179.75 C 359.050781 179.589844 358.148438 179.5625 357.265625 179.980469 C 355.351562 181.4375 354.441406 183.960938 354 186.25 C 353.933594 186.9375 353.921875 187.621094 353.921875 188.3125 C 353.917969 188.605469 353.917969 188.605469 353.914062 188.90625 C 353.90625 189.542969 353.902344 190.183594 353.898438 190.820312 C 353.890625 191.265625 353.886719 191.710938 353.882812 192.15625 C 353.867188 193.324219 353.859375 194.492188 353.851562 195.660156 C 353.839844 196.851562 353.828125 198.046875 353.8125 199.238281 C 353.789062 201.574219 353.769531 203.914062 353.75 206.25 C 354.65625 206.25 355.566406 206.25 356.5 206.25 C 356.5 206.664062 356.5 207.074219 356.5 207.5 C 350.476562 207.5 344.453125 207.5 338.25 207.5 C 338.25 207.085938 338.25 206.675781 338.25 206.25 C 339.488281 206.25 340.726562 206.25 342 206.25 C 342 191.152344 342 176.054688 342 160.5 C 340.84375 160.5 339.691406 160.5 338.5 160.5 C 338.5 160.171875 338.5 159.839844 338.5 159.5 Z M 338.5 159.5 "/>
<path style=" stroke:none;fill-rule:nonzero;fill:rgb(0.392157%,0.392157%,0.392157%);fill-opacity:1;" d="M 295.890625 176.4375 C 296.152344 176.433594 296.414062 176.425781 296.683594 176.421875 C 299.3125 176.410156 301.546875 176.867188 303.5 178.726562 C 305.660156 180.980469 306.292969 183.347656 306.277344 186.410156 C 306.277344 186.625 306.277344 186.839844 306.277344 187.0625 C 306.277344 187.769531 306.277344 188.476562 306.273438 189.183594 C 306.273438 189.675781 306.273438 190.167969 306.273438 190.660156 C 306.273438 191.949219 306.269531 193.242188 306.265625 194.535156 C 306.265625 195.851562 306.261719 197.171875 306.261719 198.492188 C 306.257812 201.078125 306.253906 203.664062 306.25 206.25 C 307.40625 206.25 308.558594 206.25 309.75 206.25 C 309.75 206.664062 309.75 207.074219 309.75 207.5 C 303.808594 207.5 297.871094 207.5 291.75 207.5 C 291.75 207.085938 291.75 206.675781 291.75 206.25 C 292.574219 206.25 293.398438 206.25 294.25 206.25 C 294.234375 203.011719 294.214844 199.773438 294.191406 196.535156 C 294.179688 195.03125 294.171875 193.527344 294.164062 192.027344 C 294.15625 190.574219 294.148438 189.125 294.132812 187.671875 C 294.128906 187.121094 294.128906 186.566406 294.125 186.011719 C 294.125 185.238281 294.117188 184.460938 294.109375 183.6875 C 294.109375 183.457031 294.109375 183.226562 294.109375 182.992188 C 294.089844 181.675781 293.980469 180.730469 293 179.75 C 292.050781 179.589844 291.148438 179.5625 290.265625 179.980469 C 288.351562 181.4375 287.441406 183.960938 287 186.25 C 286.933594 186.9375 286.921875 187.621094 286.921875 188.3125 C 286.917969 188.605469 286.917969 188.605469 286.914062 188.90625 C 286.90625 189.542969 286.902344 190.183594 286.898438 190.820312 C 286.890625 191.265625 286.886719 191.710938 286.882812 192.15625 C 286.867188 193.324219 286.859375 194.492188 286.851562 195.660156 C 286.839844 196.851562 286.828125 198.046875 286.8125 199.238281 C 286.789062 201.574219 286.769531 203.914062 286.75 206.25 C 287.65625 206.25 288.566406 206.25 289.5 206.25 C 289.5 206.664062 289.5 207.074219 289.5 207.5 C 283.476562 207.5 277.453125 207.5 271.25 207.5 C 271.25 207.085938 271.25 206.675781 271.25 206.25 C 272.488281 206.25 273.726562 206.25 275 206.25 C 275 196.925781 275 187.605469 275 178 C 273.84375 178 272.691406 178 271.5 178 C 271.5 177.671875 271.5 177.339844 271.5 177 C 276.53125 177 281.566406 177 286.75 177 C 286.832031 178.648438 286.914062 180.300781 287 182 C 287.316406 181.433594 287.316406 181.433594 287.640625 180.859375 C 289.664062 177.507812 292.074219 176.457031 295.890625 176.4375 Z M 295.890625 176.4375 "/>
<path style=" stroke:none;fill-rule:nonzero;fill:rgb(0%,0%,0.392157%);fill-opacity:1;" d="M 377.5 177 C 382.53125 177 387.566406 177 392.75 177 C 392.761719 178.722656 392.773438 180.441406 392.789062 182.21875 C 392.796875 183.3125 392.804688 184.40625 392.8125 185.5 C 392.828125 187.230469 392.84375 188.964844 392.855469 190.699219 C 392.863281 192.101562 392.875 193.5 392.890625 194.898438 C 392.894531 195.429688 392.898438 195.960938 392.902344 196.496094 C 392.90625 197.242188 392.914062 197.992188 392.921875 198.738281 C 392.921875 198.957031 392.921875 199.175781 392.921875 199.398438 C 392.945312 201.1875 392.996094 203.046875 394.0625 204.53125 C 394.902344 205.101562 395.253906 205.183594 396.25 205 C 397.78125 204.203125 398.574219 203.113281 399.144531 201.511719 C 399.757812 199.402344 399.621094 197.175781 399.628906 195 C 399.632812 194.515625 399.636719 194.03125 399.640625 193.546875 C 399.652344 192.277344 399.660156 191.011719 399.667969 189.746094 C 399.675781 188.449219 399.6875 187.15625 399.699219 185.859375 C 399.71875 183.324219 399.734375 180.785156 399.75 178.25 C 398.761719 178.25 397.769531 178.25 396.75 178.25 C 396.75 177.835938 396.75 177.425781 396.75 177 C 401.699219 177 406.648438 177 411.75 177 C 411.75 186.652344 411.75 196.304688 411.75 206.25 C 412.90625 206.25 414.058594 206.25 415.25 206.25 C 415.25 206.664062 415.25 207.074219 415.25 207.5 C 410.382812 207.5 405.515625 207.5 400.5 207.5 C 400.335938 206.261719 400.171875 205.023438 400 203.75 C 399.917969 203.585938 399.835938 203.421875 399.75 203.25 C 399.683594 203.375 399.617188 203.5 399.546875 203.625 C 398.460938 205.507812 397.101562 206.914062 395.015625 207.625 C 391.464844 208.5 387.882812 208.304688 384.671875 206.546875 C 382.542969 204.8125 381.511719 202.679688 381 200 C 380.9375 199.25 380.9375 198.503906 380.941406 197.753906 C 380.941406 197.539062 380.941406 197.324219 380.941406 197.101562 C 380.945312 196.398438 380.945312 195.695312 380.953125 194.992188 C 380.953125 194.5 380.953125 194.011719 380.953125 193.519531 C 380.957031 192.234375 380.960938 190.949219 380.964844 189.664062 C 380.972656 188.351562 380.972656 187.035156 380.976562 185.722656 C 380.980469 183.148438 380.988281 180.574219 381 178 C 379.84375 178 378.691406 178 377.5 178 C 377.5 177.671875 377.5 177.339844 377.5 177 Z M 377.5 177 "/>
<path style=" stroke:none;fill-rule:nonzero;fill:rgb(0.392157%,0.392157%,0.784314%);fill-opacity:1;" d="M 262.515625 178.90625 C 264.816406 181.179688 265.296875 184.3125 265.316406 187.414062 C 265.320312 187.785156 265.320312 188.15625 265.320312 188.527344 C 265.316406 189.117188 265.320312 189.703125 265.324219 190.292969 C 265.335938 191.96875 265.34375 193.644531 265.34375 195.320312 C 265.347656 196.347656 265.351562 197.378906 265.363281 198.40625 C 265.363281 198.796875 265.363281 199.1875 265.363281 199.578125 C 265.363281 200.121094 265.367188 200.667969 265.371094 201.214844 C 265.371094 201.523438 265.371094 201.832031 265.375 202.152344 C 265.523438 203.164062 265.855469 203.710938 266.5 204.5 C 267.125 204.75 267.125 204.75 267.75 204.5 C 269.28125 202.792969 269.328125 200.433594 269.5 198.25 C 269.828125 198.25 270.160156 198.25 270.5 198.25 C 270.609375 201.128906 270.265625 203.914062 268.367188 206.214844 C 266.53125 207.96875 264.25 208.105469 261.832031 208.070312 C 259.261719 207.992188 257.046875 207.691406 255 206 C 254.496094 205.367188 254.101562 204.726562 253.75 204 C 253.644531 204.144531 253.535156 204.289062 253.425781 204.4375 C 252.078125 206.21875 251.097656 207.417969 248.839844 207.886719 C 245.71875 208.308594 242.289062 208.390625 239.601562 206.558594 C 238.09375 205.320312 237.132812 203.925781 236.75 202 C 236.542969 199.515625 236.894531 197.675781 238.171875 195.546875 C 242 191.925781 248.363281 192.203125 253.25 192.25 C 253.226562 190.722656 253.199219 189.199219 253.171875 187.675781 C 253.160156 187.15625 253.152344 186.636719 253.144531 186.121094 C 253.132812 185.371094 253.117188 184.625 253.101562 183.875 C 253.101562 183.648438 253.097656 183.417969 253.09375 183.183594 C 253.050781 181.207031 252.992188 179.199219 251.5 177.75 C 250.277344 177.34375 249.351562 177.371094 248.140625 177.8125 C 247.359375 178.648438 247.40625 178.949219 247.40625 180.0625 C 247.429688 180.542969 247.460938 181.023438 247.5 181.5 C 248.078125 181.582031 248.65625 181.664062 249.25 181.75 C 249.738281 183.367188 249.734375 185.273438 249.21875 186.875 C 248.183594 188.257812 246.957031 189.140625 245.25 189.5 C 243.324219 189.699219 241.589844 189.703125 240 188.5 C 238.746094 187.277344 238.476562 185.871094 238.40625 184.171875 C 238.449219 182.285156 239 180.699219 240.28125 179.296875 C 245.171875 174.847656 257.5 174.859375 262.515625 178.90625 Z M 262.515625 178.90625 "/>
<path style=" stroke:none;fill-rule:nonzero;fill:rgb(0.784314%,0.784314%,0.784314%);fill-opacity:1;" d="M 182.15625 176.421875 C 182.472656 176.421875 182.785156 176.421875 183.109375 176.417969 C 184.804688 176.429688 186.367188 176.523438 188 177 C 188.367188 177.101562 188.367188 177.101562 188.742188 177.207031 C 191.34375 178.09375 193.3125 179.640625 194.75 182 C 196.113281 184.988281 196.25 187.640625 196.25 191 C 190.308594 191 184.371094 191 178.25 191 C 178.214844 198.246094 178.214844 198.246094 181.242188 204.628906 C 183.140625 206.007812 185.261719 205.972656 187.5 205.75 C 189.808594 205.347656 191.503906 204.300781 193 202.5 C 193.828125 201.148438 194.421875 199.722656 195 198.25 C 195.414062 198.25 195.824219 198.25 196.25 198.25 C 195.640625 201.625 193.757812 204.238281 191 206.25 C 188.316406 207.777344 185.796875 208.078125 182.75 208.046875 C 182.46875 208.046875 182.1875 208.046875 181.898438 208.046875 C 177.429688 208.023438 173.433594 207.132812 170.0625 204 C 166.578125 200.320312 165.804688 195.699219 165.9375 190.835938 C 166.113281 186.566406 167.398438 183.234375 170.5 180.203125 C 171.496094 179.367188 172.566406 178.761719 173.71875 178.171875 C 173.957031 178.050781 173.957031 178.050781 174.199219 177.925781 C 176.816406 176.660156 179.269531 176.382812 182.15625 176.421875 Z M 182.15625 176.421875 "/>
<path style=" stroke:none;fill-rule:nonzero;fill:rgb(0.784314%,0.784314%,0.784314%);fill-opacity:1;" d="M 149.15625 176.421875 C 149.472656 176.421875 149.785156 176.421875 150.109375 176.417969 C 151.804688 176.429688 153.367188 176.523438 155 177 C 155.367188 177.101562 155.367188 177.101562 155.742188 177.207031 C 158.34375 178.09375 160.3125 179.640625 161.75 182 C 163.113281 184.988281 163.25 187.640625 163.25 191 C 157.308594 191 151.371094 191 145.25 191 C 145.277344 198.238281 145.277344 198.238281 148.296875 204.65625 C 150.144531 206.046875 152.296875 205.96875 154.5 205.75 C 156.800781 205.347656 158.523438 204.3125 160 202.5 C 160.835938 201.171875 161.503906 199.738281 162 198.25 C 162.414062 198.25 162.824219 198.25 163.25 198.25 C 162.820312 200.636719 161.839844 202.4375 160.25 204.25 C 160.117188 204.410156 159.984375 204.570312 159.84375 204.734375 C 157.980469 206.804688 154.941406 207.84375 152.207031 208.0625 C 151.375 208.082031 150.550781 208.078125 149.71875 208.0625 C 149.441406 208.0625 149.160156 208.058594 148.875 208.058594 C 144.417969 208.015625 140.425781 207.125 137.0625 204 C 133.585938 200.347656 132.882812 195.628906 132.945312 190.78125 C 133.0625 186.933594 134.207031 183.621094 136.898438 180.8125 C 140.378906 177.566406 144.480469 176.363281 149.15625 176.421875 Z M 149.15625 176.421875 "/>
<path style=" stroke:none;fill-rule:nonzero;fill:rgb(99.215686%,99.215686%,99.215686%);fill-opacity:1;" d="M 101.75 164 C 109.503906 164 109.503906 164 112.25 166.25 C 116.421875 170.746094 116.339844 177.890625 116.328125 183.632812 C 116.328125 184.398438 116.335938 185.167969 116.339844 185.9375 C 116.347656 188.515625 116.242188 191.042969 115.914062 193.601562 C 115.882812 193.832031 115.855469 194.0625 115.824219 194.296875 C 115.277344 198.144531 114.105469 201.847656 111.015625 204.375 C 108.128906 206.472656 105.34375 206.25 101.75 206.25 C 101.75 192.308594 101.75 178.363281 101.75 164 Z M 101.75 164 "/>
<path style=" stroke:none;fill-rule:nonzero;fill:rgb(0.392157%,0.392157%,0.784314%);fill-opacity:1;" d="M 333.75 176.25 C 333.996094 176.25 334.246094 176.25 334.5 176.25 C 334.5 179.46875 334.5 182.683594 334.5 186 C 334.253906 186 334.003906 186 333.75 186 C 333.632812 185.757812 333.511719 185.515625 333.390625 185.265625 C 331.660156 181.820312 329.820312 179.390625 326.03125 178.089844 C 325.207031 177.949219 324.382812 177.953125 323.546875 177.953125 C 323.375 177.949219 323.203125 177.945312 323.027344 177.945312 C 321.269531 177.9375 319.796875 178.238281 318.5 179.5 C 317.925781 180.265625 317.890625 181.066406 317.925781 182.011719 C 318.054688 182.871094 318.339844 183.183594 319 183.75 C 320.757812 184.8125 322.695312 185.269531 324.664062 185.765625 C 328.933594 186.851562 333.285156 188.316406 335.703125 192.234375 C 336.867188 195.238281 337 198.820312 335.8125 201.839844 C 334.53125 204.546875 332.726562 206.230469 329.914062 207.292969 C 328.140625 207.84375 326.585938 208.097656 324.734375 208.09375 C 324.503906 208.09375 324.277344 208.09375 324.039062 208.09375 C 321.578125 208.046875 319.308594 207.59375 317.109375 206.4375 C 315.972656 205.851562 315.972656 205.851562 314.75 206 C 314.261719 206.492188 313.839844 207.003906 313.429688 207.5625 C 313.285156 207.707031 313.144531 207.851562 313 208 C 312.671875 208 312.339844 208 312 208 C 312 204.203125 312 200.410156 312 196.5 C 312.328125 196.5 312.660156 196.5 313 196.5 C 313.089844 196.757812 313.175781 197.015625 313.265625 197.277344 C 314.617188 201.117188 316.152344 203.90625 319.890625 205.753906 C 321.367188 206.347656 322.871094 206.3125 324.4375 206.328125 C 324.675781 206.335938 324.914062 206.34375 325.15625 206.351562 C 326.652344 206.363281 327.726562 206.15625 329.058594 205.464844 C 329.5 205.25 329.5 205.25 330 205.25 C 330.53125 203.941406 330.894531 202.933594 330.75 201.5 C 329.808594 199.816406 328.246094 199.390625 326.5 198.75 C 326.304688 198.664062 326.105469 198.578125 325.902344 198.492188 C 325.222656 198.238281 324.542969 198.085938 323.832031 197.941406 C 320.027344 197.148438 315.503906 195.632812 313.25 192.25 C 312.375 190.511719 312.078125 188.96875 312.109375 187.03125 C 312.113281 186.789062 312.113281 186.550781 312.117188 186.300781 C 312.207031 183.378906 313.117188 181.40625 315.148438 179.296875 C 318.164062 176.546875 321.238281 176.347656 325.148438 176.464844 C 326.753906 176.5625 328.238281 176.992188 329.6875 177.671875 C 330.769531 178.109375 331.339844 178.1875 332.5 178 C 332.910156 177.570312 333.1875 177.152344 333.472656 176.632812 C 333.566406 176.507812 333.65625 176.378906 333.75 176.25 Z M 333.75 176.25 "/>
<path style=" stroke:none;fill-rule:nonzero;fill:rgb(98.431373%,98.431373%,98.431373%);fill-opacity:1;" d="M 220 179.25 C 221.140625 180.105469 221.320312 180.867188 221.5625 182.25 C 221.628906 182.75 221.691406 183.25 221.75 183.75 C 221.792969 183.957031 221.835938 184.167969 221.878906 184.382812 C 222.042969 185.554688 222.035156 186.707031 222.03125 187.890625 C 222.035156 188.144531 222.035156 188.398438 222.035156 188.664062 C 222.035156 189.203125 222.035156 189.742188 222.03125 190.285156 C 222.03125 191.097656 222.03125 191.914062 222.035156 192.726562 C 222.039062 200.328125 222.039062 200.328125 221.3125 203.03125 C 221.238281 203.332031 221.160156 203.628906 221.082031 203.9375 C 220.648438 205 220.035156 205.734375 219 206.25 C 217.996094 206.347656 217.382812 206.316406 216.46875 205.875 C 215.015625 204.613281 214.101562 202.929688 213.933594 200.992188 C 213.933594 200.726562 213.933594 200.460938 213.929688 200.183594 C 213.929688 199.878906 213.925781 199.574219 213.925781 199.261719 C 213.925781 198.933594 213.925781 198.609375 213.925781 198.273438 C 213.925781 197.929688 213.921875 197.585938 213.921875 197.242188 C 213.917969 196.523438 213.917969 195.804688 213.921875 195.085938 C 213.921875 194.175781 213.917969 193.261719 213.914062 192.351562 C 213.910156 191.640625 213.910156 190.929688 213.910156 190.222656 C 213.910156 189.726562 213.90625 189.226562 213.902344 188.730469 C 213.917969 185.527344 214.316406 182.121094 216.671875 179.734375 C 217.800781 179.074219 218.722656 178.960938 220 179.25 Z M 220 179.25 "/>
<path style=" stroke:none;fill-rule:nonzero;fill:rgb(96.078432%,96.078432%,96.078432%);fill-opacity:1;" d="M 149.75 177.5 C 150.808594 178.078125 151.238281 178.78125 151.613281 179.925781 C 152.136719 182.113281 152.03125 184.4375 152.015625 186.671875 C 152.011719 187.6875 152.003906 188.703125 152 189.75 C 149.773438 189.75 147.546875 189.75 145.25 189.75 C 145.054688 180.355469 145.054688 180.355469 147.5 177.75 C 148.273438 177.363281 148.894531 177.425781 149.75 177.5 Z M 149.75 177.5 "/>
<path style=" stroke:none;fill-rule:nonzero;fill:rgb(96.078432%,96.078432%,96.078432%);fill-opacity:1;" d="M 183.25 177.75 C 184.445312 178.699219 184.523438 180.070312 184.75 181.5 C 184.792969 181.683594 184.835938 181.871094 184.878906 182.0625 C 185.019531 182.855469 185.027344 183.597656 185.023438 184.402344 C 185.023438 184.714844 185.023438 185.027344 185.023438 185.347656 C 185.019531 185.671875 185.019531 185.996094 185.015625 186.328125 C 185.015625 186.65625 185.011719 186.984375 185.011719 187.324219 C 185.007812 188.132812 185.003906 188.941406 185 189.75 C 182.773438 189.75 180.546875 189.75 178.25 189.75 C 178.097656 180.433594 178.097656 180.433594 180.421875 177.765625 C 181.375 177.328125 182.261719 177.460938 183.25 177.75 Z M 183.25 177.75 "/>
<path style=" stroke:none;fill-rule:nonzero;fill:rgb(42.352942%,45.09804%,50.588238%);fill-opacity:1;" d="M 250.75 177.25 C 251.667969 177.667969 252.261719 178.117188 252.75 179 C 253.246094 180.621094 253.316406 182.191406 253.296875 183.875 C 253.296875 184.117188 253.296875 184.359375 253.296875 184.605469 C 253.292969 185.367188 253.289062 186.128906 253.28125 186.890625 C 253.277344 187.410156 253.277344 187.929688 253.273438 188.449219 C 253.269531 189.714844 253.261719 190.984375 253.25 192.25 C 252.09375 192.25 250.941406 192.25 249.75 192.25 C 249.734375 191.804688 249.71875 191.363281 249.703125 190.90625 C 249.597656 187.851562 249.488281 184.796875 249.25 181.75 C 248.824219 181.757812 248.824219 181.757812 248.390625 181.765625 C 247.5 181.75 247.5 181.75 247.25 181.5 C 247.144531 180.492188 247.125 179.507812 247.25 178.5 C 248.289062 177.324219 249.21875 177.144531 250.75 177.25 Z M 250.75 177.25 "/>
<path style=" stroke:none;fill-rule:nonzero;fill:rgb(41.960785%,44.705883%,50.196081%);fill-opacity:1;" d="M 253.25 193.5 C 253.273438 194.664062 253.292969 195.828125 253.304688 196.996094 C 253.308594 197.390625 253.316406 197.785156 253.324219 198.179688 C 253.382812 200.773438 253.371094 202.980469 251.765625 205.15625 C 251.113281 205.589844 250.769531 205.636719 250 205.5 C 249.375 205.03125 249.253906 204.757812 249 204 C 248.941406 202.980469 248.941406 201.960938 248.941406 200.941406 C 248.9375 200.441406 248.929688 199.945312 248.921875 199.445312 C 248.914062 197.324219 248.941406 195.90625 250.390625 194.28125 C 251.375 193.425781 251.960938 193.476562 253.25 193.5 Z M 253.25 193.5 "/>
<path style=" stroke:none;fill-rule:nonzero;fill:rgb(96.078432%,96.078432%,96.078432%);fill-opacity:1;" d="M 249.75 177.25 C 249.75 179.3125 249.75 181.375 249.75 183.5 C 249.25 182.75 249.25 182.75 249.25 181.75 C 248.824219 181.757812 248.824219 181.757812 248.390625 181.765625 C 247.5 181.75 247.5 181.75 247.25 181.5 C 247.144531 180.492188 247.125 179.507812 247.25 178.5 C 247.988281 177.664062 248.632812 177.25 249.75 177.25 Z M 249.75 177.25 "/>
<path style=" stroke:none;fill-rule:nonzero;fill:rgb(94.117647%,94.117647%,94.117647%);fill-opacity:1;" d="M 249.5 195.5 C 249.582031 195.5 249.664062 195.5 249.75 195.5 C 249.75 198.636719 249.75 201.769531 249.75 205 C 249.25 204.75 249.25 204.75 249 204 C 248.949219 202.972656 248.953125 201.945312 248.953125 200.914062 C 248.953125 200.410156 248.949219 199.90625 248.945312 199.398438 C 248.945312 199.082031 248.941406 198.761719 248.941406 198.429688 C 248.941406 198.140625 248.941406 197.847656 248.9375 197.546875 C 249 196.757812 249.164062 196.207031 249.5 195.5 Z M 249.5 195.5 "/>
</g>
</svg>
